<svg width="31" height="31" viewBox="0 0 31 31" fill="none" xmlns="http://www.w3.org/2000/svg">
<path d="M15.1045 30.15C15.3481 30.15 15.5904 30.127 15.8301 30.0834L15.8032 30.1295L15.9211 30.1231H15.9262L15.9352 30.1219L15.925 30.0667C15.925 30.0667 15.9275 30.0667 15.9288 30.0667L15.9724 30.0937L15.9301 30.0667C16.1993 30.0116 16.466 29.9309 16.7262 29.8232L24.3182 26.6796C24.5528 26.5822 24.7746 26.4656 24.9861 26.331H25.1105L25.1656 26.2823L25.1387 26.2285C25.3335 26.0926 25.5181 25.9401 25.6886 25.7722L25.7322 25.7299C25.9091 25.5557 26.0681 25.3673 26.2104 25.1673L26.2079 25.2558L26.3245 25.1161L26.3309 25.1084L26.2835 25.0738H26.3399H26.2809L26.2784 25.0712C26.4386 24.8329 26.5758 24.5778 26.6873 24.3074C27.3334 22.7401 28.8475 19.0799 29.6333 17.1781L29.8205 16.7244C29.9282 16.463 30.0103 16.1939 30.0641 15.9183C30.0641 15.917 30.0641 15.9145 30.0641 15.9132L30.132 15.9158V15.8337L30.0744 15.8491C30.1179 15.6069 30.1423 15.3596 30.1449 15.1109V15.0879C30.1474 14.8341 30.1256 14.5842 30.0846 14.3382L30.132 14.3843V14.2331V14.2279V14.2215L30.0731 14.2279L30.1128 14.1882L30.0705 14.2279H30.0654C30.009 13.9421 29.9244 13.6615 29.809 13.3885C29.1193 11.7456 27.445 7.74324 26.6758 5.86319C26.4578 5.33006 26.1399 4.85204 25.7322 4.4445L25.6835 4.39709C25.2822 3.99596 24.813 3.68197 24.2887 3.46539C22.5631 2.75028 18.439 1.03811 16.7493 0.335819C16.4801 0.224324 16.2032 0.139741 15.9198 0.0846335V0.0679732L15.9262 0.019274L15.8737 0.0115846L15.8493 0.0718179C15.598 0.0218371 15.3352 -0.00123102 15.0699 5.05413e-05H15.0442C14.4853 0.00517678 13.9417 0.114109 13.4289 0.326849C11.7277 1.02914 7.54968 2.75669 5.84078 3.46026C5.30234 3.68197 4.82287 4.00493 4.41391 4.41887L4.39212 4.44066C4.21649 4.6188 4.06008 4.80975 3.91906 5.01223L3.8806 4.95969L3.82932 5.02249L3.87547 5.06606L3.8665 5.05965L3.87419 5.06734L3.87804 5.07119C3.72164 5.30443 3.58959 5.55177 3.48062 5.81321C2.77424 7.51384 1.04226 11.6866 0.333319 13.3898C0.114098 13.9178 0.00256399 14.474 0.00256399 15.0443C0.00256399 15.0545 0.00256399 15.0661 0.00256399 15.0763V15.102C0.00512799 15.3429 0.0269219 15.5825 0.0692278 15.8171L0 15.7607L0.016666 15.9132V15.9158V15.9222L0.0743558 15.9183L0.0410239 15.9606L0.0769198 15.9183H0.0871758C0.142302 16.1913 0.223067 16.4591 0.330755 16.7206L3.46524 24.2856C3.5678 24.5342 3.69343 24.7701 3.83958 24.993L3.8024 25.0917L3.83189 25.1186L3.89214 25.1853L3.92675 25.1199C4.06777 25.3198 4.22546 25.5095 4.40109 25.6851L4.46391 25.7479C4.63954 25.9235 4.82928 26.0811 5.03055 26.2233L4.9703 26.2682L5.03568 26.3233L5.07542 26.2759L5.08568 26.2631C5.32669 26.4271 5.58438 26.5668 5.85744 26.6809C7.59198 27.4011 11.7533 29.1274 13.4251 29.8232C13.6866 29.9322 13.9532 30.0142 14.2237 30.0693L14.2199 30.127L14.3314 30.1411L14.3084 30.0847C14.5558 30.1295 14.8058 30.1539 15.057 30.1539H15.1045V30.15ZM25.0015 24.993C24.0105 25.9837 22.5195 26.4489 20.685 26.3425C20.8209 26.1195 20.9478 25.9119 21.0658 25.7171C22.2426 23.782 23.7986 22.227 25.7335 21.0522C25.9271 20.9343 26.1335 20.81 26.3527 20.6755C26.4591 22.5094 25.9925 24.0024 25.0015 24.993ZM8.58938 22.2044C8.78424 22.2146 8.96628 22.2249 9.13807 22.2338C10.9149 22.327 12.4597 22.9643 13.7725 24.1459C13.9058 24.2651 14.0468 24.392 14.1981 24.5278L14.0507 24.5548L14.1468 24.5842C14.0148 24.6432 13.893 24.7073 13.7661 24.7752C13.5443 24.8918 13.3161 25.0136 13.0097 25.1122C12.161 25.4788 11.3162 25.4685 10.5649 25.0828C9.62267 24.5983 8.85731 23.5244 8.54579 22.2582L8.67527 22.3248L8.58681 22.2044H8.58938ZM8.57271 7.86242C9.0432 6.23356 10.1342 4.61495 11.8521 4.80078C12.611 4.81615 13.2866 5.14295 13.9391 5.45822C14.0071 5.49154 14.075 5.52358 14.1417 5.55562L14.0327 5.58894L14.1802 5.61585C14.0327 5.74785 13.8943 5.87216 13.7648 5.98878C12.4555 7.16696 10.9269 7.80219 9.17909 7.89446C9.0009 7.90343 8.80988 7.91369 8.60604 7.92522L8.70476 7.78938L8.57271 7.86242ZM21.5645 7.93547C21.3696 7.92522 21.1876 7.91497 21.0158 7.906C19.2398 7.81202 17.695 7.17465 16.3813 5.99391C16.2493 5.87472 16.107 5.74785 15.9557 5.612L16.1019 5.58509L16.0057 5.55562C16.1378 5.49666 16.2596 5.43259 16.3865 5.36466C16.6083 5.24804 16.8365 5.12629 17.1429 5.02761C17.9915 4.66109 18.8364 4.67134 19.5876 5.05709C20.5299 5.54152 21.2952 6.61547 21.6068 7.88165L21.4773 7.81501L21.5657 7.93547H21.5645ZM14.2314 7.29854C14.6981 6.83205 15.4557 6.83205 15.9237 7.29854L22.8567 14.2292C23.3234 14.6957 23.3234 15.4531 22.8567 15.9209L15.9237 22.8516C15.457 23.318 14.6994 23.318 14.2314 22.8516L7.29841 15.9209C6.83176 15.4544 6.83176 14.697 7.29841 14.2292L14.2314 7.29854ZM21.5811 22.2723C21.2247 23.682 20.4825 24.6829 19.4787 25.0981C18.4748 25.5134 17.2416 25.3314 15.9942 24.5868L16.1237 24.5483L15.9788 24.5214C16.1262 24.3894 16.2647 24.2651 16.3942 24.1485C17.701 22.9729 19.227 22.3389 20.9722 22.2467C21.1504 22.2377 21.3414 22.2274 21.5452 22.2159L21.4606 22.3364L21.5824 22.2723H21.5811ZM24.5566 20.423L24.5528 20.4268C23.9938 20.9625 23.2746 21.2137 22.5785 21.4572C22.499 21.4854 22.4196 21.5123 22.3414 21.5405L22.3939 21.4431L22.2721 21.5264C22.2837 21.3252 22.2926 21.1368 22.3029 20.96C22.3986 19.1504 23.0486 17.5762 24.2528 16.2374C24.3746 16.1029 24.5041 15.9593 24.6413 15.8043L24.6643 15.9542L24.7066 15.8209C25.5489 17.346 25.9348 19.317 24.5566 20.4243V20.423ZM29.1141 15.0674C29.1141 16.4681 28.3885 17.8522 27.0168 19.0761C26.9591 18.8364 26.904 18.6122 26.8514 18.4007C26.3096 16.1845 26.3053 13.9819 26.8386 11.793C26.8937 11.5661 26.9527 11.3226 27.0168 11.0612C28.3898 12.2838 29.1141 13.6666 29.1141 15.0661V15.0674ZM25.3899 11.8519V11.857C25.3733 12.6362 25.0387 13.327 24.7156 13.996C24.681 14.0665 24.6477 14.1357 24.6143 14.2049L24.5836 14.0998L24.5541 14.2484C24.4169 14.0947 24.2887 13.9524 24.1682 13.8178C22.9597 12.4756 22.308 10.9083 22.2132 9.11579C22.2029 8.92997 22.1926 8.73132 22.1811 8.51987L22.3093 8.60445L22.2465 8.49295C23.9182 8.97482 25.581 10.0975 25.3899 11.8506V11.8519ZM25.0041 5.14808C25.9027 6.04645 26.3694 7.35621 26.3694 8.96072C26.3694 9.12476 26.3643 9.29265 26.354 9.46309C26.1309 9.32725 25.9232 9.20038 25.7284 9.08247C23.7926 7.906 22.2371 6.35061 21.0619 4.41631C20.944 4.22279 20.8196 4.01646 20.685 3.79731C22.5208 3.69223 24.0131 4.15871 25.0041 5.14808ZM11.7995 3.3116C11.5739 3.2565 11.3341 3.19883 11.0764 3.13603C12.1187 2.10181 13.502 0.954813 15.0801 0.981726C16.6416 0.958658 17.9749 2.04414 19.0774 3.13475C18.8402 3.19242 18.6184 3.24624 18.4095 3.29751C16.1933 3.83918 13.9904 3.84345 11.8008 3.31032L11.7995 3.3116ZM3.79727 9.38748C3.7101 7.58689 4.17546 6.12335 5.15363 5.1468C6.14461 4.15615 7.63557 3.69095 9.47139 3.79731C9.3355 4.02031 9.20858 4.22792 9.09064 4.42272C7.91376 6.35787 6.35785 7.91283 4.42289 9.0876C4.24469 9.19525 4.05624 9.31059 3.85625 9.43234L3.94214 9.17474L3.79984 9.38876L3.79727 9.38748ZM5.68694 9.62585L5.69078 9.62201C6.24973 9.08632 6.96893 8.83513 7.66506 8.59163C7.74454 8.56344 7.82402 8.53653 7.90223 8.50833L7.84454 8.6147L7.97145 8.52499C7.95992 8.72492 7.95094 8.91202 7.94069 9.08888C7.84496 10.8984 7.19499 12.4726 5.99077 13.8114C5.86898 13.9473 5.73822 14.0921 5.59976 14.2472L5.57284 14.0947L5.53438 14.2241C4.69339 12.699 4.30879 10.7306 5.68565 9.62457L5.68694 9.62585ZM1.0397 15.0712C1.0397 13.6705 1.76531 12.2864 3.13705 11.0625C3.19602 11.3021 3.24986 11.5264 3.30242 11.7379C3.84428 13.9541 3.84855 16.1567 3.31524 18.3456C3.26012 18.5724 3.20114 18.8159 3.13705 19.0774C1.76403 17.8548 1.0397 16.472 1.03842 15.0725L1.0397 15.0712ZM4.7639 18.2866V18.2815C4.78056 17.5023 5.11517 16.8116 5.43823 16.1426C5.47284 16.0721 5.50617 16.0016 5.53951 15.9311L5.56899 16.0324L5.5972 15.8888C5.73437 16.0426 5.86257 16.1849 5.98308 16.3194C7.19157 17.6625 7.84325 19.2299 7.93812 21.0215C7.94838 21.206 7.95863 21.4034 7.97017 21.6161L7.8471 21.5303L7.90864 21.6456C6.23435 21.165 4.57032 20.0449 4.76133 18.2866H4.7639ZM5.14978 24.9905C4.16008 23.9998 3.69215 22.5107 3.79984 20.6742C4.0229 20.81 4.23059 20.9369 4.42545 21.0548C6.36127 22.2313 7.91675 23.7867 9.09192 25.721C9.20986 25.9145 9.33422 26.1208 9.46883 26.3412C7.63301 26.4463 6.14076 25.9798 5.14978 24.9905ZM11.0764 27.0025C11.3136 26.9449 11.5354 26.891 11.7444 26.8398C13.9614 26.2981 16.1647 26.2938 18.3543 26.827C18.58 26.8821 18.8197 26.9397 19.0787 27.0025C18.0364 28.0368 16.6531 29.1838 15.075 29.1568C13.5135 29.1799 12.1802 28.0944 11.0777 27.0038L11.0764 27.0025Z" fill="#FAFAFA"/>
</svg>
