<svg width="372" height="372" viewBox="0 0 372 372" fill="none" xmlns="http://www.w3.org/2000/svg">
<path d="M186.758 354.294C189.498 354.294 192.223 354.035 194.919 353.545L194.616 354.064L195.943 353.992H196.001L196.102 353.977L195.986 353.358C195.986 353.358 196.015 353.358 196.029 353.358L196.52 353.66L196.044 353.358C199.072 352.738 202.071 351.83 204.998 350.619L290.389 315.261C293.027 314.165 295.522 312.853 297.901 311.34H299.3L299.92 310.792L299.617 310.187C301.809 308.659 303.885 306.944 305.803 305.055L306.293 304.58C308.283 302.619 310.071 300.5 311.671 298.252L311.643 299.246L312.955 297.675L313.027 297.589L312.493 297.199H313.128H312.464L312.436 297.171C314.238 294.49 315.781 291.621 317.035 288.58C324.303 270.951 341.332 229.784 350.171 208.393L352.276 203.29C353.487 200.35 354.41 197.323 355.015 194.224C355.015 194.209 355.015 194.181 355.015 194.166L355.78 194.195V193.272L355.131 193.445C355.621 190.721 355.895 187.939 355.924 185.143V184.883C355.953 182.029 355.708 179.219 355.246 176.451L355.78 176.97V175.269V175.211V175.139L355.116 175.211L355.563 174.765L355.088 175.211H355.03C354.395 171.997 353.444 168.84 352.146 165.77C344.389 147.291 325.557 102.275 316.906 81.1293C314.454 75.133 310.878 69.7565 306.293 65.1727L305.745 64.6394C301.232 60.1277 295.954 56.5962 290.057 54.1602C270.649 46.117 224.262 26.8595 205.258 18.9605C202.23 17.7065 199.115 16.7551 195.929 16.1353V15.9479L196.001 15.4002L195.409 15.3137L195.135 15.9912C192.309 15.429 189.353 15.1696 186.369 15.184H186.08C179.793 15.2416 173.68 16.4669 167.912 18.8596C148.778 26.7586 101.786 46.1891 82.5649 54.1025C76.5089 56.5962 71.1161 60.2286 66.5164 64.8844L66.2712 65.1295C64.2958 67.1331 62.5367 69.2808 60.9506 71.5582L60.518 70.9673L59.9412 71.6736L60.4603 72.1636L60.3594 72.0916L60.4459 72.1781L60.4891 72.2213C58.73 74.8447 57.2448 77.6267 56.0192 80.5672C48.0742 99.6949 28.5939 146.628 20.6201 165.784C18.1544 171.723 16.8999 177.979 16.8999 184.393C16.8999 184.509 16.8999 184.638 16.8999 184.754V185.042C16.9288 187.752 17.1739 190.447 17.6497 193.085L16.8711 192.451L17.0585 194.166V194.195V194.267L17.7074 194.224L17.3325 194.699L17.7362 194.224H17.8516C18.4716 197.294 19.38 200.307 20.5912 203.247L55.8462 288.335C56.9997 291.131 58.4128 293.783 60.0566 296.291L59.6384 297.401L59.97 297.704L60.6477 298.453L61.0371 297.718C62.6232 299.967 64.3967 302.1 66.3722 304.075L67.0787 304.781C69.0541 306.756 71.1882 308.529 73.452 310.129L72.7743 310.634L73.5097 311.253L73.9567 310.72L74.072 310.576C76.7828 312.421 79.6811 313.992 82.7524 315.275C102.262 323.376 149.066 342.792 167.869 350.619C170.81 351.844 173.81 352.767 176.852 353.386L176.809 354.035L178.063 354.194L177.804 353.559C180.587 354.064 183.398 354.338 186.224 354.338H186.758V354.294ZM298.074 296.291C286.928 307.434 270.159 312.666 249.525 311.47C251.053 308.962 252.481 306.626 253.807 304.435C267.044 282.67 284.544 265.181 306.307 251.967C308.485 250.641 310.806 249.243 313.272 247.73C314.469 268.356 309.22 285.149 298.074 296.291ZM113.48 264.926C115.671 265.041 117.719 265.157 119.651 265.257C139.636 266.305 157.011 273.474 171.776 286.764C173.276 288.104 174.862 289.531 176.564 291.059L174.905 291.362L175.987 291.693C174.502 292.356 173.132 293.077 171.704 293.841C169.21 295.153 166.643 296.522 163.197 297.632C153.652 301.754 144.149 301.639 135.7 297.3C125.102 291.852 116.493 279.773 112.989 265.531L114.446 266.281L113.451 264.926H113.48ZM113.292 103.616C118.584 85.2951 130.855 67.0898 150.176 69.1799C158.713 69.3529 166.312 73.0285 173.651 76.5744C174.415 76.9492 175.179 77.3095 175.929 77.6699L174.704 78.0447L176.362 78.3474C174.704 79.832 173.146 81.2302 171.69 82.5419C156.963 95.7935 139.771 102.938 120.112 103.976C118.108 104.077 115.96 104.192 113.667 104.322L114.777 102.794L113.292 103.616ZM259.416 104.437C257.225 104.322 255.177 104.207 253.245 104.106C233.269 103.049 215.894 95.8799 201.119 82.5996C199.634 81.2591 198.034 79.832 196.332 78.3041L197.976 78.0014L196.895 77.6699C198.38 77.0068 199.75 76.2861 201.177 75.5222C203.672 74.2105 206.238 72.8411 209.684 71.7312C219.23 67.6087 228.732 67.724 237.182 72.0627C247.78 77.5113 256.388 89.5905 259.892 103.832L258.436 103.082L259.431 104.437H259.416ZM176.938 97.2733C182.187 92.0265 190.709 92.0265 195.972 97.2733L273.951 175.226C279.199 180.473 279.199 188.991 273.951 194.253L195.972 272.205C190.723 277.452 182.201 277.452 176.938 272.205L98.9595 194.253C93.7109 189.006 93.7109 180.487 98.9595 175.226L176.938 97.2733ZM259.604 265.69C255.595 281.546 247.246 292.803 235.956 297.473C224.666 302.144 210.795 300.097 196.765 291.722L198.221 291.29L196.592 290.987C198.25 289.502 199.807 288.104 201.264 286.792C215.962 273.57 233.125 266.439 252.755 265.402C254.759 265.301 256.907 265.185 259.2 265.056L258.248 266.411L259.618 265.69H259.604ZM293.071 244.89L293.027 244.933C286.741 250.958 278.651 253.784 270.822 256.522C269.928 256.839 269.034 257.142 268.154 257.459L268.745 256.364L267.376 257.301C267.505 255.038 267.606 252.919 267.722 250.93C268.798 230.577 276.109 212.871 289.653 197.813C291.023 196.299 292.479 194.685 294.022 192.941L294.282 194.627L294.758 193.128C304.231 210.281 308.571 232.45 293.071 244.904V244.89ZM344.331 184.653C344.331 200.408 336.17 215.975 320.741 229.741C320.092 227.045 319.472 224.523 318.881 222.144C312.786 197.217 312.738 172.444 318.737 147.824C319.357 145.273 320.02 142.534 320.741 139.594C336.184 153.345 344.331 168.898 344.331 184.638V184.653ZM302.443 148.487V148.545C302.256 157.309 298.492 165.078 294.859 172.602C294.469 173.395 294.094 174.174 293.719 174.952L293.373 173.77L293.042 175.442C291.499 173.712 290.057 172.112 288.702 170.599C275.109 155.502 267.779 137.874 266.712 117.713C266.597 115.623 266.482 113.389 266.352 111.01L267.794 111.961L267.087 110.707C285.89 116.127 304.592 128.754 302.443 148.473V148.487ZM298.103 73.0862C308.211 83.1906 313.459 97.922 313.459 115.969C313.459 117.814 313.402 119.702 313.286 121.619C310.777 120.091 308.441 118.664 306.25 117.338C284.477 104.106 266.982 86.6116 253.764 64.8556C252.437 62.679 251.039 60.3583 249.525 57.8935C270.173 56.7115 286.957 61.9583 298.103 73.0862ZM149.585 52.4305C147.048 51.8107 144.351 51.162 141.453 50.4557C153.176 38.8234 168.734 25.9226 186.484 26.2253C204.047 25.9659 219.043 38.1748 231.443 50.4413C228.775 51.09 226.281 51.6954 223.931 52.2719C199.005 58.3644 174.228 58.4124 149.6 52.4161L149.585 52.4305ZM59.5807 120.769C58.6002 100.517 63.8344 84.0554 74.8362 73.0717C85.9823 61.9295 102.752 56.6971 123.4 57.8935C121.872 60.4016 120.444 62.7367 119.118 64.9277C105.881 86.6932 88.3807 104.183 66.6173 117.396C64.613 118.606 62.4934 119.904 60.244 121.273L61.2101 118.376L59.6096 120.783L59.5807 120.769ZM80.8346 123.45L80.8779 123.406C87.1646 117.381 95.2538 114.556 103.083 111.817C103.977 111.5 104.871 111.198 105.751 110.88L105.102 112.077L106.53 111.068C106.4 113.316 106.299 115.421 106.184 117.41C105.107 137.763 97.7964 155.469 84.252 170.527C82.8821 172.055 81.4114 173.683 79.8541 175.428L79.5513 173.712L79.1187 175.168C69.6597 158.015 65.334 135.875 80.8202 123.435L80.8346 123.45ZM28.5651 184.696C28.5651 168.941 36.7263 153.374 52.1548 139.608C52.8181 142.304 53.4237 144.826 54.0149 147.204C60.1094 172.132 60.1575 196.905 54.1591 221.524C53.5391 224.076 52.8758 226.814 52.1548 229.755C36.7119 216.004 28.5651 200.451 28.5506 184.71L28.5651 184.696ZM70.4528 220.861V220.804C70.6402 212.04 74.4036 204.271 78.0373 196.746C78.4266 195.954 78.8015 195.161 79.1764 194.368L79.508 195.507L79.8253 193.892C81.3681 195.622 82.81 197.222 84.1654 198.735C97.7579 213.842 105.088 231.47 106.155 251.621C106.27 253.697 106.385 255.917 106.515 258.31L105.131 257.344L105.823 258.641C86.9916 253.236 68.2755 240.638 70.424 220.861H70.4528ZM74.793 296.263C63.6614 285.12 58.3984 268.371 59.6096 247.715C62.1185 249.243 64.4544 250.67 66.6461 251.996C88.4191 265.229 105.914 282.723 119.132 304.479C120.459 306.655 121.857 308.976 123.371 311.455C102.723 312.637 85.939 307.39 74.793 296.263ZM141.453 318.893C144.12 318.244 146.615 317.639 148.965 317.062C173.901 310.97 198.683 310.922 223.311 316.918C225.848 317.538 228.545 318.187 231.457 318.893C219.735 330.525 204.176 343.426 186.426 343.123C168.864 343.383 153.868 331.174 141.467 318.907L141.453 318.893Z" fill="black"/>
</svg>
