<svg xmlns="http://www.w3.org/2000/svg" viewBox="0 6 24 12.2" fill="#FFFFFF">
  <path d="M7.15 8.685c.03.02.05.06.05.1v6.44c0 .04-.02.08-.05.1-.029.03-.068.047-.11.05H.16c-.042-.003-.081-.02-.11-.05-.03-.025-.048-.061-.05-.1V8.785c0-.04.02-.08.05-.1.029-.03.068-.047.11-.05h6.88c.04 0 .08.02.11.05zM4.8 11.035c-.002-.039-.02-.075-.05-.1-.029-.03-.068-.048-.11-.05H2.56c-.04 0-.079.014-.11.04-.03.025-.048.061-.05.1v1.95c0 .04.02.08.05.1.03.04.07.05.11.05h2.08c.04 0 .08-.01.11-.04.03-.025.048-.061.05-.1v-1.95zM21.6 11.035v1.94c0 .09-.07.15-.16.15h-2.08c-.09 0-.16-.06-.16-.15v-1.94c0-.08.07-.15.16-.15h2.08c.09 0 .16.06.16.15zM19.2 8.785v1.95c0 .08-.07.15-.16.15h-2.08c-.09 0-.16-.07-.16-.15V8.785c0-.08.07-.15.16-.15h2.08c.09 0 .16.07.16.15zM24 8.785v1.95c0 .08-.07.15-.16.15h-2.08c-.09 0-.16-.07-.16-.15V8.785c0-.08.07-.15.16-.15h2.08c.09 0 .16.07.16.15zM19.2 13.285v1.94c0 .08-.07.15-.16.15h-2.08c-.09 0-.16-.07-.16-.15v-1.95c0-.08.07-.15.16-.15h2.08c.09 0 .16.07.16.15v.01zM24 13.285v1.94c0 .08-.07.15-.16.15h-2.08c-.09 0-.16-.07-.16-.15v-1.95c0-.08.07-.15.16-.15h2.08c.09 0 .16.07.16.15v.01zM15.6 8.785v1.95c0 .08-.07.15-.16.15h-2.08c-.09 0-.16-.07-.16-.15V8.785c0-.08.07-.15.16-.15h2.08c.09 0 .16.07.16.15zM15.6 13.285v1.94c0 .08-.07.15-.16.15h-2.08c-.09 0-.16-.07-.16-.15v-1.95c0-.08.07-.15.16-.15h2.08c.09 0 .16.07.16.15v.01zM13.2 12.985c-.005.084-.075.15-.16.15H10.8v2.08c0 .04-.02.08-.05.11-.031.026-.07.04-.11.04H8.56c-.044.003-.087-.012-.12-.04-.026-.027-.041-.063-.04-.1V8.775c0-.04.01-.08.04-.1.032-.032.075-.05.12-.05h2.08c.04 0 .08.02.11.05.03.02.05.06.05.1v2.1h2.24c.04 0 .08.01.11.04.03.03.05.07.05.1v1.95l.01.02z"/>
</svg>
