<svg xmlns="http://www.w3.org/2000/svg" viewBox="0 0 101 12" fill="#FFFFFF">
  <path d="M 82.607 11.731 L 85.655 11.731 L 86.894 2.944 L 87.151 2.944 L 89.071 11.731 L 92.61 11.731 L 96.876 2.944 L 97.099 2.944 L 95.871 11.731 L 99.03 11.731 L 100.638 0.269 L 95.335 0.269 L 91.293 8.564 L 89.473 0.269 L 84.214 0.269 L 82.606 11.731 Z M 75.148 12 C 79.302 12 81.166 10.959 81.49 8.373 C 81.769 6.112 80.563 5.048 77.638 4.78 L 74.69 4.511 C 73.585 4.41 73.272 4.175 73.295 3.66 C 73.328 2.798 74.21 2.44 76.12 2.44 C 78.029 2.44 78.654 2.798 78.621 3.873 L 81.836 3.873 C 82.171 1.142 80.563 0 76.365 0 C 72.167 0 70.448 1.086 70.124 3.638 C 69.856 5.754 70.894 6.806 73.752 7.075 L 76.912 7.366 C 77.939 7.455 78.352 7.746 78.252 8.407 C 78.14 9.213 77.381 9.56 75.36 9.56 C 73.239 9.56 72.524 9.168 72.614 8.093 L 69.364 8.093 C 69.041 10.825 70.749 12 75.148 12 Z M 64.05 11.731 L 67.322 11.731 L 68.93 0.269 L 65.658 0.269 Z M 40.202 11.731 L 43.473 11.731 L 45.081 0.269 L 41.81 0.269 L 40.202 11.731 Z M 31.192 11.731 L 34.463 11.731 L 35.68 3.067 L 40.012 3.067 L 40.403 0.269 L 28.233 0.269 L 27.842 3.067 L 32.408 3.067 L 31.191 11.731 Z M 18.062 6.134 L 18.519 2.843 L 21.913 2.843 C 23.231 2.843 23.733 3.358 23.588 4.489 C 23.432 5.642 22.762 6.134 21.299 6.134 L 18.061 6.134 Z M 14.109 11.731 L 17.269 11.731 L 17.693 8.709 L 21.467 8.709 C 24.761 8.709 26.413 7.444 26.815 4.567 C 27.217 1.701 25.788 0.269 22.494 0.269 L 15.717 0.269 L 14.109 11.731 Z M 6.193 9.258 C 3.871 9.258 3 8.306 3.313 6.09 C 3.648 3.728 4.831 2.743 7.265 2.743 C 9.699 2.743 10.447 3.694 10.135 5.91 C 9.8 8.239 8.661 9.258 6.193 9.258 Z M 5.97 12 C 10.481 12 12.781 10.164 13.35 6.09 C 13.92 2.015 11.999 0 7.488 0 C 2.978 0 0.667 1.836 0.097 5.91 C -0.472 9.985 1.459 12 5.97 12 Z M 45.55 11.731 L 48.598 11.731 L 49.837 2.944 L 50.094 2.944 L 52.014 11.731 L 55.554 11.731 L 59.819 2.944 L 60.042 2.944 L 58.814 11.731 L 61.973 11.731 L 63.581 0.269 L 58.278 0.269 L 54.236 8.564 L 52.416 0.269 L 47.157 0.269 L 45.549 11.731 Z"/>
</svg>
