<svg width="753" height="215" viewBox="0 0 753 215" fill="none" xmlns="http://www.w3.org/2000/svg">
<g clip-path="url(#clip0_192_75029)">
<path d="M272.933 102.36V62.5249H261.881V102.947C261.881 112.026 258.536 114.715 252.925 114.715C250.245 114.715 248.069 114.291 246.145 113.704L245.228 122.531C247.324 123.036 249.671 123.37 252.26 123.37C269.326 123.37 272.933 113.118 272.933 102.36Z" fill="white"/>
<path d="M367.542 56.1334C370.645 56.1334 373.072 53.5249 373.072 50.4209C373.072 47.226 370.645 44.7085 367.542 44.7085C364.439 44.7085 362.011 47.317 362.011 50.4209C362.011 53.6159 364.449 56.1334 367.542 56.1334Z" fill="white"/>
<path d="M374.414 44.2027C377.346 44.2027 379.602 41.847 379.602 38.9048C379.602 35.9627 377.346 33.6069 374.414 33.6069C371.563 33.6069 369.306 35.9627 369.306 38.9048C369.306 41.847 371.563 44.2027 374.414 44.2027Z" fill="white"/>
<path d="M375.833 50.4209C375.833 53.6159 378.261 56.1334 381.444 56.1334C384.547 56.1334 386.975 53.5249 386.975 50.4209C386.975 47.226 384.547 44.7085 381.444 44.7085C378.261 44.7085 375.833 47.3069 375.833 50.4209Z" fill="white"/>
<path d="M397.272 56.1334C400.455 56.1334 402.883 53.5249 402.883 50.4209C402.883 47.226 400.455 44.7085 397.272 44.7085C394.169 44.7085 391.741 47.317 391.741 50.4209C391.741 53.6159 394.169 56.1334 397.272 56.1334Z" fill="white"/>
<path d="M411.174 56.1334C414.277 56.1334 416.705 53.5249 416.705 50.4209C416.705 47.226 414.277 44.7085 411.174 44.7085C408.071 44.7085 405.643 47.317 405.643 50.4209C405.643 53.6159 408.071 56.1334 411.174 56.1334Z" fill="white"/>
<path d="M485.694 82.4389C485.694 74.118 484.606 65.8779 483.014 59.1544L472.214 60.671C473.635 67.0608 474.642 74.7954 474.642 83.1972C474.642 85.8057 474.39 89.9207 474.058 93.2774H471.126C463.752 93.2774 461.918 90.9216 461.918 83.9454V64.1996H451.36V84.2892C451.36 90.3352 450.02 93.9548 445.164 93.9548C440.228 93.9548 438.797 90.5071 438.797 84.2083V67.5664H427.746V82.7827C427.746 91.1036 425.65 93.2875 420.21 93.2875H418.79H417.53H411.335V62.5212H400.283V93.2774H389.816H388.556H381.605V62.5212H370.553V93.2774H360.177H358.827H353.054V81.438C353.054 69.1638 347.191 61.4394 333.711 61.4394C319.637 61.4394 312.353 71.1859 312.353 83.2073C312.353 90.8509 310.096 93.2875 306.067 93.2875H305.654H304.394H297.282V42.7754H286.24V102.023H304.404H305.664H305.674C310.691 102.023 314.63 99.92 316.725 95.5523C319.234 99.6672 324.1 102.023 333.973 102.023H358.837H360.187H388.566H389.826H417.54H418.8H420.13C426.325 102.023 429.761 99.8391 431.272 95.805C432.692 100.173 437.045 102.781 443.16 102.781C448.439 102.781 453.295 100.517 455.299 95.805C457.143 100.345 461.586 102.023 468.87 102.023H484.445C485.19 96.0578 485.694 88.576 485.694 82.4389ZM342.264 93.2875H335.061C326.437 93.2875 323.254 89.5871 323.254 82.1963C323.254 75.0481 326.85 70.1749 332.965 70.1749C339.081 70.1749 342.264 73.8753 342.264 82.7018V93.2875Z" fill="white"/>
<path d="M534.425 42.7754H523.373V93.2875H497.492V102.023H534.425V42.7754Z" fill="white"/>
<path d="M517.26 86.9798L505.029 42.1802L494.058 43.6968L506.037 86.9798H517.26Z" fill="white"/>
<path d="M559.621 42.7754H548.569V102.023H559.621V42.7754Z" fill="white"/>
<path d="M631.129 102.025V80.7624C631.129 68.9938 625.266 61.4312 612.199 61.4312C597.632 61.4312 590.338 71.1777 590.338 82.6127C590.338 94.4622 596.453 102.025 612.784 102.025H631.129ZM601.4 81.5207C601.4 74.9691 605.087 70.1767 611.363 70.1767C616.975 70.1767 620.319 73.7053 620.319 82.1071V93.2894H613.952C605.258 93.2894 601.4 89.417 601.4 81.5207Z" fill="white"/>
<path d="M618.405 56.1334C621.508 56.1334 623.936 53.5249 623.936 50.4209C623.936 47.226 621.508 44.7085 618.405 44.7085C615.303 44.7085 612.875 47.317 612.875 50.4209C612.875 53.6159 615.303 56.1334 618.405 56.1334Z" fill="white"/>
<path d="M604.504 56.1334C607.687 56.1334 610.115 53.5249 610.115 50.4209C610.115 47.226 607.687 44.7085 604.504 44.7085C601.401 44.7085 598.973 47.317 598.973 50.4209C598.973 53.6159 601.401 56.1334 604.504 56.1334Z" fill="white"/>
<path d="M654.49 102.36V62.5249H643.438V102.947C643.438 112.026 640.094 114.715 634.482 114.715C631.802 114.715 629.626 114.291 627.702 113.704L626.775 122.531C628.871 123.036 631.218 123.37 633.807 123.37C650.883 123.37 654.49 113.118 654.49 102.36Z" fill="white"/>
<path d="M678.852 42.7754H667.801V102.023H678.852V42.7754Z" fill="white"/>
<path d="M675.84 122.531C677.936 123.036 680.283 123.37 682.872 123.37C699.959 123.37 703.555 113.118 703.555 102.36V62.5249H692.503V102.947C692.503 112.026 689.159 114.715 683.547 114.715C680.868 114.715 678.691 114.291 676.767 113.704L675.84 122.531Z" fill="white"/>
<path d="M698.035 55.4654C701.219 55.4654 703.818 52.8569 703.818 49.6721C703.818 46.4772 701.219 43.8687 698.035 43.8687C694.852 43.8687 692.252 46.4772 692.252 49.6721C692.252 52.9378 694.852 55.4654 698.035 55.4654Z" fill="white"/>
<path d="M735.118 61.4312C719.714 61.4312 712.924 71.5113 712.924 82.5217C712.924 94.4521 719.039 102.025 735.37 102.025H741.898V103.289C741.898 111.185 736.115 114.471 727.411 114.471C720.883 114.471 714.344 113.045 714.344 113.045L713.669 122.125C713.669 122.125 720.117 123.216 726.403 123.216C745.162 123.216 752.617 113.804 752.617 102.207V64.3733C752.627 64.3733 745.001 61.4312 735.118 61.4312ZM741.908 93.2894H736.548C727.753 93.2894 723.986 89.1744 723.986 81.5207C723.986 74.9691 727.673 70.1767 733.949 70.1767C738.724 70.1767 741.908 71.6933 741.908 71.6933V93.2894Z" fill="white"/>
<path d="M274.726 133.903L268.782 151.859C267.916 154.428 267.342 156.389 266.838 159.058H266.737C266.274 156.591 265.659 154.225 264.843 151.758L259.04 133.903H251.253L245.923 168.623H252.693L254.638 152.628C255.051 149.595 255.403 146.865 255.615 143.781H255.716C256.129 146.562 256.995 149.696 257.922 152.527L263.201 168.623H269.81L275.29 151.182C276.157 148.452 276.721 145.985 277.184 143.771H277.285C277.537 146.187 277.849 148.756 278.363 152.052L280.821 168.613H287.843L282.463 133.893H274.726V133.903Z" fill="white"/>
<path d="M296.244 131.799C293.987 131.799 292.194 133.598 292.194 135.762C292.194 137.976 293.987 139.776 296.244 139.776C298.5 139.776 300.344 137.976 300.344 135.762C300.344 133.548 298.5 131.799 296.244 131.799Z" fill="white"/>
<path d="M299.517 143.062H292.959V168.631H299.517V143.062Z" fill="white"/>
<path d="M321.151 142.498C317 142.498 314.028 144.611 312.487 147.644L312.436 147.594C312.688 146.259 312.799 144.247 312.799 143.064H306.593V168.634H313.152V156.289C313.152 151.81 315.771 148.008 319.096 148.008C321.503 148.008 322.219 149.606 322.219 152.275V168.634H328.727V150.677C328.737 146.198 326.893 142.498 321.151 142.498Z" fill="white"/>
<path d="M342.415 143.062H335.857V168.631H342.415V143.062Z" fill="white"/>
<path d="M339.132 131.799C336.876 131.799 335.083 133.598 335.083 135.762C335.083 137.976 336.876 139.776 339.132 139.776C341.389 139.776 343.233 137.976 343.233 135.762C343.233 133.548 341.389 131.799 339.132 131.799Z" fill="white"/>
<path d="M354.819 150.111C354.819 148.514 356.048 147.493 358.607 147.493C360.199 147.493 361.891 147.745 363.322 148.16L363.523 142.963C361.992 142.71 360.35 142.498 358.859 142.498C351.686 142.498 348.039 146.198 348.039 150.677C348.039 159.372 358.345 156.794 358.345 161.324C358.345 163.022 356.703 164.054 354.195 164.054C352.25 164.054 350.296 163.69 348.714 163.285L348.563 168.684C350.205 168.937 352.049 169.149 353.892 169.149C360.864 169.149 365.266 165.752 365.266 160.717C365.276 152.427 354.819 154.277 354.819 150.111Z" fill="white"/>
<path d="M378.543 133.448L371.985 135.197V143.063H367.623V148.159H372.035V161.121C372.035 167.086 373.778 169.148 379.42 169.148C381.213 169.148 383.107 168.896 384.749 168.481V163.183C383.822 163.436 382.644 163.598 381.576 163.598C379.319 163.598 378.553 162.668 378.553 159.382V148.169H384.759V143.073H378.553V133.448H378.543Z" fill="white"/>
<path d="M395.909 148.21H395.808C396.121 146.41 396.272 144.348 396.272 143.064H390.066V168.633H396.624V158.189C396.624 151.091 398.982 148.008 403.697 148.978L404.009 142.497C399.606 142.143 397.138 144.964 395.909 148.21Z" fill="white"/>
<path d="M420.262 151.757C419.436 154.173 418.368 157.571 417.804 159.886H417.753C417.189 157.571 416.524 155.053 415.749 152.839L412.313 143.062H405.04L414.419 168.631L413.552 171.098C412.223 174.9 410.782 175.881 408.636 175.881C407.407 175.881 406.329 175.679 405.15 175.315L404.737 180.976C405.815 181.229 407.195 181.391 408.324 181.391C414.167 181.391 416.837 178.975 419.859 170.997L430.306 143.062H423.284L420.262 151.757Z" fill="white"/>
<path d="M456.329 142.546C448.592 142.546 443.313 148.309 443.313 156.276C443.313 165.386 447.977 169.137 455.201 169.137C462.837 169.137 468.217 163.374 468.217 155.356C468.227 146.56 463.563 142.546 456.329 142.546ZM455.775 163.535C451.977 163.535 450.083 160.856 450.083 155.609C450.083 150.361 452.954 148.097 455.876 148.097C459.724 148.097 461.457 150.776 461.457 155.71C461.457 160.907 458.999 163.535 455.775 163.535Z" fill="white"/>
<path d="M474.835 141.001V143.053H470.372V148.149H474.835V168.623H481.343V148.149H487.287V143.053H481.343V140.89C481.343 137.492 482.622 136.006 485.493 136.006C486.471 136.006 487.649 136.107 488.667 136.471L489.13 131.072C487.8 130.759 486.36 130.658 484.98 130.658C478.008 130.668 474.835 134.065 474.835 141.001Z" fill="white"/>
<path d="M509.523 133.903H502.863V168.622H509.523V133.903Z" fill="white"/>
<path d="M531.201 142.497C527.05 142.497 524.078 144.61 522.537 147.643L522.487 147.593C522.738 146.258 522.839 144.246 522.839 143.063H516.633V168.633H523.192V156.288C523.192 151.809 525.801 148.007 529.136 148.007C531.543 148.007 532.259 149.605 532.259 152.274V168.633H538.767V150.676C538.787 146.198 536.943 142.497 531.201 142.497Z" fill="white"/>
<path d="M557.072 154.792C556.458 156.541 555.944 158.492 555.531 160.241H555.43C554.967 158.391 554.352 156.328 553.738 154.579L549.688 143.053H542.515L551.944 168.623H558.603L568.134 143.053H561.162L557.072 154.792Z" fill="white"/>
<path d="M581.976 142.497C574.34 142.497 570.038 148.26 570.038 156.075C570.038 165.074 574.551 169.138 582.651 169.138C585.825 169.138 589.059 168.572 591.779 167.49L591.164 162.395C588.958 163.426 586.248 163.992 583.729 163.992C579.014 163.992 576.657 161.677 576.707 156.894H592.494C592.645 155.813 592.695 154.781 592.695 153.912C592.695 147.593 589.411 142.497 581.976 142.497ZM576.798 152.426C577.161 149.342 579.055 147.33 581.775 147.33C584.545 147.33 586.288 149.231 586.177 152.426H576.798Z" fill="white"/>
<path d="M603.503 150.111C603.503 148.514 604.732 147.493 607.301 147.493C608.893 147.493 610.586 147.745 612.016 148.16L612.218 142.963C610.676 142.71 609.044 142.498 607.553 142.498C600.38 142.498 596.733 146.198 596.733 150.677C596.733 159.372 607.04 156.794 607.04 161.324C607.04 163.022 605.397 164.054 602.889 164.054C600.944 164.054 598.99 163.69 597.408 163.285L597.257 168.684C598.899 168.937 600.743 169.149 602.587 169.149C609.558 169.149 613.961 165.752 613.961 160.717C613.951 152.427 603.503 154.277 603.503 150.111Z" fill="white"/>
<path d="M627.23 133.448L620.672 135.197V143.063H616.32V148.159H620.722V161.121C620.722 167.086 622.465 169.148 628.107 169.148C629.9 169.148 631.794 168.896 633.436 168.481V163.183C632.509 163.436 631.331 163.598 630.253 163.598C627.996 163.598 627.23 162.668 627.23 159.382V148.169H633.436V143.073H627.23V133.448Z" fill="white"/>
<path d="M668.435 142.497C664.133 142.497 661.313 145.126 660.134 147.643C659.519 145.176 657.625 142.497 653.112 142.497C649.324 142.497 646.241 144.509 644.71 147.643H644.609C644.861 146.147 644.962 144.246 644.962 143.063H638.756V168.633H645.314V156.389C645.314 151.607 648.135 148.007 651.157 148.007C653.666 148.007 654.18 149.908 654.18 152.426V168.633H660.638V156.389C660.638 151.404 663.61 148.007 666.481 148.007C668.889 148.007 669.503 149.706 669.503 152.426V168.633H676.062V151.04C676.072 145.227 673.352 142.497 668.435 142.497Z" fill="white"/>
<path d="M693.277 142.498C685.641 142.498 681.339 148.261 681.339 156.076C681.339 165.075 685.852 169.139 693.952 169.139C697.126 169.139 700.359 168.573 703.069 167.491L702.455 162.396C700.249 163.427 697.539 163.993 695.02 163.993C690.305 163.993 687.948 161.678 687.998 156.895H703.785C703.936 155.814 703.986 154.782 703.986 153.913C703.996 147.594 700.712 142.498 693.277 142.498ZM688.109 152.427C688.472 149.343 690.366 147.331 693.086 147.331C695.856 147.331 697.599 149.232 697.488 152.427H688.109Z" fill="white"/>
<path d="M724.024 142.498C719.873 142.498 716.901 144.611 715.36 147.644L715.309 147.594C715.561 146.259 715.662 144.247 715.662 143.064H709.456V168.634H716.014V156.289C716.014 151.81 718.624 148.008 721.958 148.008C724.366 148.008 725.081 149.606 725.081 152.275V168.634H731.59V150.677C731.61 146.198 729.766 142.498 724.024 142.498Z" fill="white"/>
<path d="M746.419 133.448L739.861 135.197V143.063H735.509V148.159H739.911V161.12C739.911 167.085 741.654 169.148 747.296 169.148C749.089 169.148 750.983 168.895 752.625 168.481V163.183C751.698 163.436 750.52 163.597 749.442 163.597C747.185 163.597 746.419 162.667 746.419 159.381V148.169H752.625V143.073H746.419V133.448Z" fill="white"/>
<path d="M78.2135 54.8692C61.097 61.2187 63.8171 77.3752 63.8171 77.3752C64.5828 74.9993 69.892 64.3327 80.037 61.8253C68.6931 73.4726 71.9069 88.0418 71.9069 88.0418C72.2897 86.1815 75.5236 71.319 86.7768 68.1949C79.7851 77.4157 82.6059 89.3461 83.3212 91.9243C83.3212 87.324 87.9555 79.3064 90.7965 75.6565C93.6677 81.6217 93.2647 93.0769 93.2647 93.0769H91.139L93.2143 106.625H91.5319L93.1337 120.173H91.7435L93.4964 137.502L87.4215 140.819V141.628H104.467V140.819L98.3926 137.502L100.146 120.173H98.7553L100.357 106.625H98.6847L100.75 93.0769H98.6243C98.6243 93.0769 98.2112 81.6116 101.093 75.6565C103.934 79.3064 108.568 87.324 108.568 91.9243C109.283 89.3461 112.104 77.4157 105.102 68.1949C116.365 71.319 119.599 86.1815 119.972 88.0418C119.972 88.0418 123.186 73.4726 111.832 61.8253C121.987 64.3327 127.296 74.9993 128.052 77.3752C128.052 77.3752 130.762 61.2187 113.655 54.8692C114.008 54.8692 114.753 54.6569 115.972 54.6569C119.7 54.6569 125.301 56.2443 129.2 58.0844C129.2 58.0844 125.422 48.4086 110.714 48.4086C110.129 48.4086 109.656 48.439 109.656 48.439C109.656 48.439 110.16 44.7587 116.849 44.7587C119.065 44.7587 120.899 45.1227 120.899 45.1227C120.899 45.1227 117.04 41.5335 111.288 41.5335C104.598 41.5335 100.277 46.9022 99.5411 47.6402C96.6296 45.517 100.186 42.0087 101.677 41.0381C101.677 41.0381 101.123 40.6842 100.236 40.6842C99.1482 40.6842 98.1609 41.3515 97.8183 41.7458C97.8183 41.7458 97.4859 38.8946 100.045 37.7319C98.2717 37.7319 95.9143 39.4608 95.9143 40.0371C95.9143 39.4608 93.5669 37.7319 91.7938 37.7319C94.3527 38.8946 94.0203 41.7458 94.0203 41.7458C93.6777 41.3515 92.6905 40.6842 91.6024 40.6842C90.7159 40.6842 90.1618 41.0381 90.1618 41.0381C91.6427 42.0087 95.199 45.517 92.2975 47.6402C91.5621 46.9022 87.2301 41.5335 80.5407 41.5335C74.7882 41.5335 70.9297 45.1227 70.9297 45.1227C70.9297 45.1227 72.7632 44.7587 74.9796 44.7587C81.6589 44.7587 82.1727 48.439 82.1727 48.439C82.1727 48.439 81.6992 48.4086 81.1149 48.4086C66.4062 48.4086 62.6283 58.0844 62.6283 58.0844C66.5271 56.2443 72.1285 54.6569 75.8561 54.6569C77.1154 54.6569 77.8609 54.8692 78.2135 54.8692ZM145.863 130.476C126.369 130.476 95.9949 150.575 95.9949 150.575L95.9445 150.606L95.8941 150.575C95.8941 150.575 65.5197 130.476 46.0257 130.476C35.4878 130.476 30.1685 134.115 28.5264 135.642C31.186 134.055 38.6613 134.156 38.6613 134.156C45.4111 134.156 54.9718 136.623 61.913 139.949C77.2967 147.31 89.3558 154.609 89.3558 154.609L89.5069 154.7L74.4557 164.275C74.4557 164.275 69.348 158.148 64.8447 158.148C61.9332 158.148 61.4093 159.857 61.4093 160.625C61.4093 161.383 61.8728 162.971 63.797 162.971C65.7111 162.971 65.8018 161.636 65.8018 161.191C66.0536 161.292 66.2451 161.252 66.4969 161.616C66.7488 161.98 69.7107 166.671 69.7107 166.671C69.7107 166.671 60.1601 171.979 59.4851 171.979C58.9915 171.979 58.0545 170.817 57.1277 170.817C56.2008 170.817 56.221 171.666 56.221 171.807C56.221 172.323 58.5583 176.317 61.8727 176.317C62.3865 176.317 64.1093 176.408 65.016 176.064C68.673 174.659 72.7531 172.636 73.6598 172.131C73.6598 172.131 76.9542 176.256 79.2612 176.256C79.2612 176.256 80.0974 176.276 80.4097 176.276C81.5683 176.276 82.8578 176.003 82.8578 176.003C82.8578 176.003 84.6108 177.247 85.9305 177.247C87.2603 177.247 88.7413 176.468 88.7413 174.921C88.7413 173.375 87.7036 172.363 86.3133 172.363C84.9231 172.363 84.2279 173.577 84.2279 174.082C83.8753 174.082 83.6134 174.103 83.6134 174.103L78.959 169.179L95.9747 158.684L113.001 169.179L108.336 174.103C108.336 174.103 108.084 174.082 107.722 174.082C107.722 173.577 107.026 172.363 105.636 172.363C104.246 172.363 103.218 173.385 103.218 174.921C103.218 176.468 104.689 177.247 106.019 177.247C107.349 177.247 109.102 176.003 109.102 176.003C109.102 176.003 110.391 176.276 111.55 176.276C111.862 176.276 112.698 176.256 112.698 176.256C115.005 176.256 118.3 172.131 118.3 172.131C119.206 172.636 123.287 174.659 126.944 176.064C127.85 176.408 129.573 176.317 130.087 176.317C133.391 176.317 135.739 172.323 135.739 171.807C135.739 171.666 135.759 170.817 134.832 170.817C133.905 170.817 132.968 171.979 132.474 171.979C131.799 171.979 122.249 166.671 122.249 166.671C122.249 166.671 125.201 161.98 125.453 161.616C125.704 161.262 125.896 161.303 126.148 161.191C126.148 161.636 126.228 162.971 128.152 162.971C130.067 162.971 130.54 161.383 130.54 160.625C130.54 159.857 130.016 158.148 127.105 158.148C122.591 158.148 117.494 164.275 117.494 164.275L102.443 154.7L102.594 154.609C102.594 154.609 114.663 147.32 130.036 139.949C136.978 136.623 146.538 134.156 153.288 134.156C153.288 134.156 160.773 134.055 163.423 135.642C161.72 134.115 156.411 130.476 145.863 130.476Z" fill="white"/>
<path d="M191.761 215H0.125V0H191.761V215ZM10.9953 204.091H180.891V10.9092H10.9953V204.091Z" fill="white"/>
</g>
<defs>
<clipPath id="clip0_192_75029">
<rect width="752.5" height="215" fill="white" transform="translate(0.125)"/>
</clipPath>
</defs>
</svg>
