<svg width="619" height="75" viewBox="0 0 619 75" fill="none" xmlns="http://www.w3.org/2000/svg">
<path d="M52.3907 0H59.8751V22.5H52.3907V15.0469C52.3907 15 52.3907 15 52.344 15H44.9063V7.54687C44.9063 7.5 44.9063 7.5 44.8596 7.5H15.0156C14.9688 7.5 14.9688 7.5 14.9688 7.54687V15H7.53117C7.48439 15 7.48439 15 7.48439 15.0469V59.9531C7.48439 60 7.48439 60 7.53117 60H14.9688V67.4531C14.9688 67.5 14.9688 67.5 15.0156 67.5H44.8596C44.9063 67.5 44.9063 67.5 44.9063 67.4531V60H52.344C52.3907 60 52.3907 60 52.3907 59.9531V52.5H59.8751V60H52.4375C52.3907 60 52.3907 60 52.3907 60.0469V67.5H44.9531C44.9063 67.5 44.9063 67.5 44.9063 67.5469V75H14.9688V67.5469C14.9688 67.5 14.9688 67.5 14.922 67.5H7.48439V60.0469C7.48439 60 7.48439 60 7.43761 60H0V15H7.43761C7.48439 15 7.48439 15 7.48439 14.9531V7.5H14.922C14.9688 7.5 14.9688 7.5 14.9688 7.45312V0H44.9063V7.45312C44.9063 7.5 44.9063 7.5 44.9531 7.5H52.344C52.3907 7.5 52.3907 7.5 52.3907 7.45312V0Z" fill="black"/>
<path d="M52.3907 0H59.8751V22.5H52.3907V15.0469C52.3907 15 52.3907 15 52.344 15H44.9063V7.54687C44.9063 7.5 44.9063 7.5 44.8596 7.5H15.0156C14.9688 7.5 14.9688 7.5 14.9688 7.54687V15H7.53117C7.48439 15 7.48439 15 7.48439 15.0469V59.9531C7.48439 60 7.48439 60 7.53117 60H14.9688V67.4531C14.9688 67.5 14.9688 67.5 15.0156 67.5H44.8596C44.9063 67.5 44.9063 67.5 44.9063 67.4531V60H52.344C52.3907 60 52.3907 60 52.3907 59.9531V52.5H59.8751V60H52.4375C52.3907 60 52.3907 60 52.3907 60.0469V67.5H44.9531C44.9063 67.5 44.9063 67.5 44.9063 67.5469V75H14.9688V67.5469C14.9688 67.5 14.9688 67.5 14.922 67.5H7.48439V60.0469C7.48439 60 7.48439 60 7.43761 60H0V15H7.43761C7.48439 15 7.48439 15 7.48439 14.9531V7.5H14.922C14.9688 7.5 14.9688 7.5 14.9688 7.45312V0H44.9063V7.45312C44.9063 7.5 44.9063 7.5 44.9531 7.5H52.344C52.3907 7.5 52.3907 7.5 52.3907 7.45312V0Z" fill="url(#paint0_radial_31_62)"/>
<path d="M118.018 67.5H125.456V75H110.487V60.0469C110.487 60 110.487 60 110.44 60H103.003V45.0469C103.003 45 103.003 45 102.956 45H95.5184V37.5469C95.5184 37.5 95.5184 37.5 95.4716 37.5H80.5963C80.5496 37.5 80.5496 37.5 80.5496 37.5469V67.4531C80.5496 67.5 80.5496 67.5 80.5963 67.5H95.5184V75H65.5808V67.5H73.0184C73.0652 67.5 73.0652 67.5 73.0652 67.4531V7.54687C73.0652 7.5 73.0652 7.5 73.0184 7.5H65.5808V0H110.487V7.45312C110.487 7.5 110.487 7.5 110.534 7.5H117.972V30H110.534C110.487 30 110.487 30 110.487 30.0469V37.5H103.05C103.003 37.5 103.003 37.5 103.003 37.5469V44.9531C103.003 45 103.003 45 103.05 45H110.487V59.9531C110.487 60 110.487 60 110.534 60H117.972V67.4531C117.972 67.5 117.972 67.5 118.018 67.5ZM110.44 30C110.487 30 110.487 30 110.487 29.9531V7.54687C110.487 7.5 110.487 7.5 110.44 7.5H80.5963C80.5496 7.5 80.5496 7.5 80.5496 7.54687V29.9531C80.5496 30 80.5496 30 80.5963 30H110.44Z" fill="black"/>
<path d="M118.018 67.5H125.456V75H110.487V60.0469C110.487 60 110.487 60 110.44 60H103.003V45.0469C103.003 45 103.003 45 102.956 45H95.5184V37.5469C95.5184 37.5 95.5184 37.5 95.4716 37.5H80.5963C80.5496 37.5 80.5496 37.5 80.5496 37.5469V67.4531C80.5496 67.5 80.5496 67.5 80.5963 67.5H95.5184V75H65.5808V67.5H73.0184C73.0652 67.5 73.0652 67.5 73.0652 67.4531V7.54687C73.0652 7.5 73.0652 7.5 73.0184 7.5H65.5808V0H110.487V7.45312C110.487 7.5 110.487 7.5 110.534 7.5H117.972V30H110.534C110.487 30 110.487 30 110.487 30.0469V37.5H103.05C103.003 37.5 103.003 37.5 103.003 37.5469V44.9531C103.003 45 103.003 45 103.05 45H110.487V59.9531C110.487 60 110.487 60 110.534 60H117.972V67.4531C117.972 67.5 117.972 67.5 118.018 67.5ZM110.44 30C110.487 30 110.487 30 110.487 29.9531V7.54687C110.487 7.5 110.487 7.5 110.44 7.5H80.5963C80.5496 7.5 80.5496 7.5 80.5496 7.54687V29.9531C80.5496 30 80.5496 30 80.5963 30H110.44Z" fill="url(#paint1_radial_31_62)"/>
<path d="M188.084 0V7.5H180.646C180.599 7.5 180.599 7.5 180.599 7.54687V15H173.162C173.115 15 173.115 15 173.115 15.0469V30H165.677C165.631 30 165.631 30 165.631 30.0469V45H158.193C158.146 45 158.146 45 158.146 45.0469V67.4531C158.146 67.5 158.146 67.5 158.193 67.5H173.115V75H135.693V67.5H150.615C150.662 67.5 150.662 67.5 150.662 67.4531V45.0469C150.662 45 150.662 45 150.615 45H143.178V30.0469C143.178 30 143.178 30 143.131 30H135.693V15.0469C135.693 15 135.693 15 135.646 15H128.209V7.54687C128.209 7.5 128.209 7.5 128.162 7.5H120.724V0H143.178V7.5H135.74C135.693 7.5 135.693 7.5 135.693 7.54687V14.9531C135.693 15 135.693 15 135.74 15H143.178V29.9531C143.178 30 143.178 30 143.224 30H150.662V44.9531C150.662 45 150.662 45 150.709 45H158.1C158.146 45 158.146 45 158.146 44.9531V30H165.584C165.631 30 165.631 30 165.631 29.9531V15H173.068C173.115 15 173.115 15 173.115 14.9531V7.54687C173.115 7.5 173.115 7.5 173.068 7.5H165.631V0H188.084Z" fill="black"/>
<path d="M188.084 0V7.5H180.646C180.599 7.5 180.599 7.5 180.599 7.54687V15H173.162C173.115 15 173.115 15 173.115 15.0469V30H165.677C165.631 30 165.631 30 165.631 30.0469V45H158.193C158.146 45 158.146 45 158.146 45.0469V67.4531C158.146 67.5 158.146 67.5 158.193 67.5H173.115V75H135.693V67.5H150.615C150.662 67.5 150.662 67.5 150.662 67.4531V45.0469C150.662 45 150.662 45 150.615 45H143.178V30.0469C143.178 30 143.178 30 143.131 30H135.693V15.0469C135.693 15 135.693 15 135.646 15H128.209V7.54687C128.209 7.5 128.209 7.5 128.162 7.5H120.724V0H143.178V7.5H135.74C135.693 7.5 135.693 7.5 135.693 7.54687V14.9531C135.693 15 135.693 15 135.74 15H143.178V29.9531C143.178 30 143.178 30 143.224 30H150.662V44.9531C150.662 45 150.662 45 150.709 45H158.1C158.146 45 158.146 45 158.146 44.9531V30H165.584C165.631 30 165.631 30 165.631 29.9531V15H173.068C173.115 15 173.115 15 173.115 14.9531V7.54687C173.115 7.5 173.115 7.5 173.068 7.5H165.631V0H188.084Z" fill="url(#paint2_radial_31_62)"/>
<path d="M238.713 7.5H246.151V30H238.713C238.667 30 238.667 30 238.667 30.0469V37.5H208.776C208.729 37.5 208.729 37.5 208.729 37.5469V67.4531C208.729 67.5 208.729 67.5 208.776 67.5H223.698V75H193.76V67.5H201.198C201.245 67.5 201.245 67.5 201.245 67.4531V7.54687C201.245 7.5 201.245 7.5 201.198 7.5H193.76V0H238.667V7.45312C238.667 7.5 238.667 7.5 238.713 7.5ZM238.667 7.54687C238.667 7.5 238.667 7.5 238.62 7.5H208.776C208.729 7.5 208.729 7.5 208.729 7.54687V29.9531C208.729 30 208.729 30 208.776 30H238.62C238.667 30 238.667 30 238.667 29.9531V7.54687Z" fill="black"/>
<path d="M238.713 7.5H246.151V30H238.713C238.667 30 238.667 30 238.667 30.0469V37.5H208.776C208.729 37.5 208.729 37.5 208.729 37.5469V67.4531C208.729 67.5 208.729 67.5 208.776 67.5H223.698V75H193.76V67.5H201.198C201.245 67.5 201.245 67.5 201.245 67.4531V7.54687C201.245 7.5 201.245 7.5 201.198 7.5H193.76V0H238.667V7.45312C238.667 7.5 238.667 7.5 238.713 7.5ZM238.667 7.54687C238.667 7.5 238.667 7.5 238.62 7.5H208.776C208.729 7.5 208.729 7.5 208.729 7.54687V29.9531C208.729 30 208.729 30 208.776 30H238.62C238.667 30 238.667 30 238.667 29.9531V7.54687Z" fill="url(#paint3_radial_31_62)"/>
<path d="M310.176 0V15H302.692V7.54687C302.692 7.5 302.692 7.5 302.645 7.5H284.776C284.73 7.5 284.73 7.5 284.73 7.54687V67.4531C284.73 67.5 284.73 67.5 284.776 67.5H299.698V75H262.276V67.5H277.198C277.245 67.5 277.245 67.5 277.245 67.4531V7.54687C277.245 7.5 277.245 7.5 277.198 7.5H259.329C259.283 7.5 259.283 7.5 259.283 7.54687V15H251.798V0H310.176Z" fill="black"/>
<path d="M310.176 0V15H302.692V7.54687C302.692 7.5 302.692 7.5 302.645 7.5H284.776C284.73 7.5 284.73 7.5 284.73 7.54687V67.4531C284.73 67.5 284.73 67.5 284.776 67.5H299.698V75H262.276V67.5H277.198C277.245 67.5 277.245 67.5 277.245 67.4531V7.54687C277.245 7.5 277.245 7.5 277.198 7.5H259.329C259.283 7.5 259.283 7.5 259.283 7.54687V15H251.798V0H310.176Z" fill="url(#paint4_radial_31_62)"/>
<path d="M372.828 15H380.265V60H372.828C372.781 60 372.781 60 372.781 60.0469V67.5H365.343C365.297 67.5 365.297 67.5 365.297 67.5469V75H327.875V67.5469C327.875 67.5 327.875 67.5 327.828 67.5H320.39V60.0469C320.39 60 320.39 60 320.344 60H312.906V15H320.344C320.39 15 320.39 15 320.39 14.9531V7.5H327.828C327.875 7.5 327.875 7.5 327.875 7.45312V0H365.297V7.45312C365.297 7.5 365.297 7.5 365.343 7.5H372.781V14.9531C372.781 15 372.781 15 372.828 15ZM372.781 15.0469C372.781 15 372.781 15 372.734 15H365.297V7.54687C365.297 7.5 365.297 7.5 365.25 7.5H327.922C327.875 7.5 327.875 7.5 327.875 7.54687V15H320.437C320.39 15 320.39 15 320.39 15.0469V59.9531C320.39 60 320.39 60 320.437 60H327.875V67.4531C327.875 67.5 327.875 67.5 327.922 67.5H365.25C365.297 67.5 365.297 67.5 365.297 67.4531V60H372.734C372.781 60 372.781 60 372.781 59.9531V15.0469Z" fill="black"/>
<path d="M372.828 15H380.265V60H372.828C372.781 60 372.781 60 372.781 60.0469V67.5H365.343C365.297 67.5 365.297 67.5 365.297 67.5469V75H327.875V67.5469C327.875 67.5 327.875 67.5 327.828 67.5H320.39V60.0469C320.39 60 320.39 60 320.344 60H312.906V15H320.344C320.39 15 320.39 15 320.39 14.9531V7.5H327.828C327.875 7.5 327.875 7.5 327.875 7.45312V0H365.297V7.45312C365.297 7.5 365.297 7.5 365.343 7.5H372.781V14.9531C372.781 15 372.781 15 372.828 15ZM372.781 15.0469C372.781 15 372.781 15 372.734 15H365.297V7.54687C365.297 7.5 365.297 7.5 365.25 7.5H327.922C327.875 7.5 327.875 7.5 327.875 7.54687V15H320.437C320.39 15 320.39 15 320.39 15.0469V59.9531C320.39 60 320.39 60 320.437 60H327.875V67.4531C327.875 67.5 327.875 67.5 327.922 67.5H365.25C365.297 67.5 365.297 67.5 365.297 67.4531V60H372.734C372.781 60 372.781 60 372.781 59.9531V15.0469Z" fill="url(#paint5_radial_31_62)"/>
<path d="M467.24 22.5H474.678V52.5H467.24C467.193 52.5 467.193 52.5 467.193 52.5469V60H459.756C459.709 60 459.709 60 459.709 60.0469V67.5H452.271C452.224 67.5 452.224 67.5 452.224 67.5469V75H407.318V67.5H414.756C414.802 67.5 414.802 67.5 414.802 67.4531V7.54687C414.802 7.5 414.802 7.5 414.756 7.5H407.318V0H452.224V7.45312C452.224 7.5 452.224 7.5 452.271 7.5H459.709V14.9531C459.709 15 459.709 15 459.756 15H467.193V22.4531C467.193 22.5 467.193 22.5 467.24 22.5ZM467.193 22.5469C467.193 22.5 467.193 22.5 467.146 22.5H459.709V15.0469C459.709 15 459.709 15 459.662 15H452.224V7.54687C452.224 7.5 452.224 7.5 452.178 7.5H422.334C422.287 7.5 422.287 7.5 422.287 7.54687V67.4531C422.287 67.5 422.287 67.5 422.334 67.5H452.178C452.224 67.5 452.224 67.5 452.224 67.4531V60H459.662C459.709 60 459.709 60 459.709 59.9531V52.5H467.146C467.193 52.5 467.193 52.5 467.193 52.4531V22.5469Z" fill="black"/>
<path d="M467.24 22.5H474.678V52.5H467.24C467.193 52.5 467.193 52.5 467.193 52.5469V60H459.756C459.709 60 459.709 60 459.709 60.0469V67.5H452.271C452.224 67.5 452.224 67.5 452.224 67.5469V75H407.318V67.5H414.756C414.802 67.5 414.802 67.5 414.802 67.4531V7.54687C414.802 7.5 414.802 7.5 414.756 7.5H407.318V0H452.224V7.45312C452.224 7.5 452.224 7.5 452.271 7.5H459.709V14.9531C459.709 15 459.709 15 459.756 15H467.193V22.4531C467.193 22.5 467.193 22.5 467.24 22.5ZM467.193 22.5469C467.193 22.5 467.193 22.5 467.146 22.5H459.709V15.0469C459.709 15 459.709 15 459.662 15H452.224V7.54687C452.224 7.5 452.224 7.5 452.178 7.5H422.334C422.287 7.5 422.287 7.5 422.287 7.54687V67.4531C422.287 67.5 422.287 67.5 422.334 67.5H452.178C452.224 67.5 452.224 67.5 452.224 67.4531V60H459.662C459.709 60 459.709 60 459.709 59.9531V52.5H467.146C467.193 52.5 467.193 52.5 467.193 52.4531V22.5469Z" fill="url(#paint6_radial_31_62)"/>
<path d="M525.336 67.5H532.774V75H517.805V60.0469C517.805 60 517.805 60 517.758 60H510.321V45.0469C510.321 45 510.321 45 510.274 45H502.836V37.5469C502.836 37.5 502.836 37.5 502.79 37.5H487.914C487.868 37.5 487.868 37.5 487.868 37.5469V67.4531C487.868 67.5 487.868 67.5 487.914 67.5H502.836V75H472.899V67.5H480.336C480.383 67.5 480.383 67.5 480.383 67.4531V7.54687C480.383 7.5 480.383 7.5 480.336 7.5H472.899V0H517.805V7.45312C517.805 7.5 517.805 7.5 517.852 7.5H525.29V30H517.852C517.805 30 517.805 30 517.805 30.0469V37.5H510.368C510.321 37.5 510.321 37.5 510.321 37.5469V44.9531C510.321 45 510.321 45 510.368 45H517.805V59.9531C517.805 60 517.805 60 517.852 60H525.29V67.4531C525.29 67.5 525.29 67.5 525.336 67.5ZM517.758 30C517.805 30 517.805 30 517.805 29.9531V7.54687C517.805 7.5 517.805 7.5 517.758 7.5H487.914C487.868 7.5 487.868 7.5 487.868 7.54687V29.9531C487.868 30 487.868 30 487.914 30H517.758Z" fill="black"/>
<path d="M525.336 67.5H532.774V75H517.805V60.0469C517.805 60 517.805 60 517.758 60H510.321V45.0469C510.321 45 510.321 45 510.274 45H502.836V37.5469C502.836 37.5 502.836 37.5 502.79 37.5H487.914C487.868 37.5 487.868 37.5 487.868 37.5469V67.4531C487.868 67.5 487.868 67.5 487.914 67.5H502.836V75H472.899V67.5H480.336C480.383 67.5 480.383 67.5 480.383 67.4531V7.54687C480.383 7.5 480.383 7.5 480.336 7.5H472.899V0H517.805V7.45312C517.805 7.5 517.805 7.5 517.852 7.5H525.29V30H517.852C517.805 30 517.805 30 517.805 30.0469V37.5H510.368C510.321 37.5 510.321 37.5 510.321 37.5469V44.9531C510.321 45 510.321 45 510.368 45H517.805V59.9531C517.805 60 517.805 60 517.852 60H525.29V67.4531C525.29 67.5 525.29 67.5 525.336 67.5ZM517.758 30C517.805 30 517.805 30 517.805 29.9531V7.54687C517.805 7.5 517.805 7.5 517.758 7.5H487.914C487.868 7.5 487.868 7.5 487.868 7.54687V29.9531C487.868 30 487.868 30 487.914 30H517.758Z" fill="url(#paint7_radial_31_62)"/>
<path d="M553.448 67.4531C553.448 67.5 553.448 67.5 553.495 67.5H560.933V75H538.48V67.5H545.917C545.964 67.5 545.964 67.5 545.964 67.4531V7.54687C545.964 7.5 545.964 7.5 545.917 7.5H538.48V0H560.933V7.5H553.495C553.448 7.5 553.448 7.5 553.448 7.54687V67.4531Z" fill="black"/>
<path d="M553.448 67.4531C553.448 67.5 553.448 67.5 553.495 67.5H560.933V75H538.48V67.5H545.917C545.964 67.5 545.964 67.5 545.964 67.4531V7.54687C545.964 7.5 545.964 7.5 545.917 7.5H538.48V0H560.933V7.5H553.495C553.448 7.5 553.448 7.5 553.448 7.54687V67.4531Z" fill="url(#paint8_radial_31_62)"/>
<path d="M611.562 7.5H619V30H611.562C611.516 30 611.516 30 611.516 30.0469V37.5H581.625C581.578 37.5 581.578 37.5 581.578 37.5469V67.4531C581.578 67.5 581.578 67.5 581.625 67.5H596.547V75H566.609V67.5H574.047C574.094 67.5 574.094 67.5 574.094 67.4531V7.54687C574.094 7.5 574.094 7.5 574.047 7.5H566.609V0H611.516V7.45312C611.516 7.5 611.516 7.5 611.562 7.5ZM611.516 7.54687C611.516 7.5 611.516 7.5 611.469 7.5H581.625C581.578 7.5 581.578 7.5 581.578 7.54687V29.9531C581.578 30 581.578 30 581.625 30H611.469C611.516 30 611.516 30 611.516 29.9531V7.54687Z" fill="black"/>
<path d="M611.562 7.5H619V30H611.562C611.516 30 611.516 30 611.516 30.0469V37.5H581.625C581.578 37.5 581.578 37.5 581.578 37.5469V67.4531C581.578 67.5 581.578 67.5 581.625 67.5H596.547V75H566.609V67.5H574.047C574.094 67.5 574.094 67.5 574.094 67.4531V7.54687C574.094 7.5 574.094 7.5 574.047 7.5H566.609V0H611.516V7.45312C611.516 7.5 611.516 7.5 611.562 7.5ZM611.516 7.54687C611.516 7.5 611.516 7.5 611.469 7.5H581.625C581.578 7.5 581.578 7.5 581.578 7.54687V29.9531C581.578 30 581.578 30 581.625 30H611.469C611.516 30 611.516 30 611.516 29.9531V7.54687Z" fill="url(#paint9_radial_31_62)"/>
<defs>
<radialGradient id="paint0_radial_31_62" cx="0" cy="0" r="1" gradientUnits="userSpaceOnUse" gradientTransform="translate(310.355 39.757) scale(401.021 82.5355)">
<stop offset="0.455" stop-color="white"/>
<stop offset="1" stop-color="#C9C9C9"/>
</radialGradient>
<radialGradient id="paint1_radial_31_62" cx="0" cy="0" r="1" gradientUnits="userSpaceOnUse" gradientTransform="translate(310.355 39.757) scale(401.021 82.5355)">
<stop offset="0.455" stop-color="white"/>
<stop offset="1" stop-color="#C9C9C9"/>
</radialGradient>
<radialGradient id="paint2_radial_31_62" cx="0" cy="0" r="1" gradientUnits="userSpaceOnUse" gradientTransform="translate(310.355 39.757) scale(401.021 82.5355)">
<stop offset="0.455" stop-color="white"/>
<stop offset="1" stop-color="#C9C9C9"/>
</radialGradient>
<radialGradient id="paint3_radial_31_62" cx="0" cy="0" r="1" gradientUnits="userSpaceOnUse" gradientTransform="translate(310.355 39.757) scale(401.021 82.5355)">
<stop offset="0.455" stop-color="white"/>
<stop offset="1" stop-color="#C9C9C9"/>
</radialGradient>
<radialGradient id="paint4_radial_31_62" cx="0" cy="0" r="1" gradientUnits="userSpaceOnUse" gradientTransform="translate(310.355 39.757) scale(401.021 82.5355)">
<stop offset="0.455" stop-color="white"/>
<stop offset="1" stop-color="#C9C9C9"/>
</radialGradient>
<radialGradient id="paint5_radial_31_62" cx="0" cy="0" r="1" gradientUnits="userSpaceOnUse" gradientTransform="translate(310.355 39.757) scale(401.021 82.5355)">
<stop offset="0.455" stop-color="white"/>
<stop offset="1" stop-color="#C9C9C9"/>
</radialGradient>
<radialGradient id="paint6_radial_31_62" cx="0" cy="0" r="1" gradientUnits="userSpaceOnUse" gradientTransform="translate(310.355 39.757) scale(401.021 82.5355)">
<stop offset="0.455" stop-color="white"/>
<stop offset="1" stop-color="#C9C9C9"/>
</radialGradient>
<radialGradient id="paint7_radial_31_62" cx="0" cy="0" r="1" gradientUnits="userSpaceOnUse" gradientTransform="translate(310.355 39.757) scale(401.021 82.5355)">
<stop offset="0.455" stop-color="white"/>
<stop offset="1" stop-color="#C9C9C9"/>
</radialGradient>
<radialGradient id="paint8_radial_31_62" cx="0" cy="0" r="1" gradientUnits="userSpaceOnUse" gradientTransform="translate(310.355 39.757) scale(401.021 82.5355)">
<stop offset="0.455" stop-color="white"/>
<stop offset="1" stop-color="#C9C9C9"/>
</radialGradient>
<radialGradient id="paint9_radial_31_62" cx="0" cy="0" r="1" gradientUnits="userSpaceOnUse" gradientTransform="translate(310.355 39.757) scale(401.021 82.5355)">
<stop offset="0.455" stop-color="white"/>
<stop offset="1" stop-color="#C9C9C9"/>
</radialGradient>
</defs>
</svg>
